HIERARCHY
ROOT Hips
{
	OFFSET	0.00	0.00	0.00
	CHANNELS 6 Xposition Yposition Zposition Zrotation Xrotation Yrotation
	JOINT Spine
	{
		OFFSET	 0.00	0.01	 0.00
		CHANNELS 3 Zrotation Xrotation Yrotation
		JOINT Spine1
		{
			OFFSET	 0.00	 2.45913012437421	 0.00
			CHANNELS 3 Zrotation Xrotation Yrotation
            JOINT Neck
            {
                OFFSET	 0.00	 2.48462964506057	 0.00
                CHANNELS 3 Zrotation Xrotation Yrotation
                JOINT Head
                {
                    OFFSET	 0.00	 0.927524780924562	 0.00
                    CHANNELS 3 Zrotation Xrotation Yrotation
                    End Site 
                    {
                        OFFSET	 0.00	 1.14999962169752	 0.00
                    }
                }
            }
			JOINT LeftShoulder
			{
				OFFSET	 0.00	 2.48462964506057	 0.00
				CHANNELS 3 Zrotation Xrotation Yrotation
				JOINT LeftUpArm
				{
					OFFSET	 0.00	 1.24881979654096	 0.00
					CHANNELS 3 Zrotation Xrotation Yrotation
					JOINT LeftForeArm
					{
						OFFSET	 0.00	2.59758046908119	 0.00
						CHANNELS 3 Zrotation Xrotation Yrotation
						JOINT LeftHand
						{
							OFFSET	 0.00	2.45542024364365	 0.00
							CHANNELS 3 Zrotation Xrotation Yrotation
							JOINT LeftHandThumb 
							{
								OFFSET	 0.00	0.00	 0.00
								CHANNELS 3 Zrotation Xrotation Yrotation
								End Site
								{
									OFFSET	 0.00	0.00	1.00000003353624
								}
							}
							JOINT L_Wrist_End 
							{
								OFFSET	 0.00	0.99999967115358	 0.00
								CHANNELS 3 Zrotation Xrotation Yrotation
								End Site 
								{
									OFFSET	 0.00	 0.00	 0.00
								}
							}
						}
					}
				}
			}
			JOINT RightShoulder
			{
				OFFSET	 0.00	 2.48462964506057	 0.00
				CHANNELS 3 Zrotation Xrotation Yrotation
				JOINT RightUpArm
				{
					OFFSET	 0.00	 1.24881979654096	 0.00
					CHANNELS 3 Zrotation Xrotation Yrotation
					JOINT RightForeArm
					{
						OFFSET	 0.00	2.59758046908119	 0.00
						CHANNELS 3 Zrotation Xrotation Yrotation
						JOINT RightHand
						{
							OFFSET	 0.00	2.45542024364365	 0.00
							CHANNELS 3 Zrotation Xrotation Yrotation
							JOINT RightHandThumb 
							{
								OFFSET	 0.00	0.00	 0.00
								CHANNELS 3 Zrotation Xrotation Yrotation
								End Site
								{
									OFFSET	 0.00	0.00	1.00000003353624
								}
							}
							JOINT R_Wrist_End 
							{
								OFFSET	 0.00	0.99999967115358	 0.00
								CHANNELS 3 Zrotation Xrotation Yrotation
								End Site 
								{
									OFFSET	 0.00	 0.00	 0.00
								}
							}
						}
					}
				}
			}
		}
	}
	JOINT LeftUpLeg
	{
		OFFSET	 1.2719394002717	 0.00	 0.00
		CHANNELS 3 Zrotation Xrotation Yrotation
		JOINT LeftLowLeg
		{
			OFFSET	 0.00	-4.3429100912261	 0.00
			CHANNELS 3 Zrotation Xrotation Yrotation
			JOINT LeftFoot
			{
				OFFSET	 0.00	-4.48767017425826	 0.00
				CHANNELS 3 Zrotation Xrotation Yrotation
				JOINT LeftToeBase
                {
                    OFFSET	 0.00	0.00	 1.51507020887566
                    CHANNELS 3 Zrotation Xrotation Yrotation
                    End Site 
                    {
                        OFFSET	 0.00	0.00	 0.75000010571191
                    }
                }
			}
		}
	}
	JOINT RightUpLeg
	{
		OFFSET	 -1.2719393604653	 0.00	 0.00
		CHANNELS 3 Zrotation Xrotation Yrotation
		JOINT RightLowLeg
		{
			OFFSET	 0.00	-4.3429100912261	 0.00
			CHANNELS 3 Zrotation Xrotation Yrotation
			JOINT RightFoot
			{
				OFFSET	 0.00	-4.48767017425826	 0.00
				CHANNELS 3 Zrotation Xrotation Yrotation
				JOINT RightToeBase
                {
                    OFFSET	 0.00	0.00	 1.51507020887566
                    CHANNELS 3 Zrotation Xrotation Yrotation
                    End Site 
                    {
                        OFFSET	 0.00	0.00	 0.749999965609858
                    }
                }   
			}
		}
	}
}
MOTION 
Frames:	10 
Frame Time: 0.02 
  14.8475 0.7450659942626953 10.1652001953125 82.4809 85.2711 -253.096 2.42759 -6.0895 1.30261 -3.23674 14.8874 1.16535 33.8122 37.0589 -21.8688 27.8129 -43.3169 23.2328 -102.2198 -6.87521 3.6515 -57.93 5.97504 20.0837 0.0 31.3152 0.0 19.7446 -11.643 -0.456869 0.0 0.0 0.0 0.0 0.0 0.0 98.6128 -8.24025 -6.02188 51.4059 28.8407 -22.8263 0.0 138.357 0.0 -66.4303 45.0958 13.6022 0.0 0.0 0.0 0.0 0.0 0.0 7.25384 -21.0974 0.824097 0.0 56.8553 0.0 11.3112 13.63731 1.74566 0.0 -43.1926 0.0 6.14405 -5.69003 3.02437 0.0 11.0816 0.0 9.08659 11.97448 -6.4295 0.0 -28.4972 0.0 
  14.857099609375 0.7956639862060547 10.16780029296875 79.2882 85.2191 -249.581 2.59514 -6.22279 1.31501 -3.25716 14.7256 1.14264 32.229 37.8477 -20.1511 26.6076 -43.7534 22.126 -102.2575 -6.7221 3.72245 -57.8291 5.73047 20.1288 0.0 30.8757 0.0 19.3861 -11.3677 0.00624231 0.0 0.0 0.0 0.0 0.0 0.0 98.99393 -8.26611 -6.35445 50.8675 29.9879 -22.53 0.0 138.345 0.0 -65.5514 43.7065 13.6504 0.0 0.0 0.0 0.0 0.0 0.0 7.28805 -21.4046 1.03199 0.0 53.79 0.0 11.8609 12.981319 1.88699 0.0 -42.6516 0.0 6.19167 -5.29054 2.8059 0.0 10.4255 0.0 8.68396 11.9722805 -6.6627 0.0 -28.6483 0.0 
  14.864200439453125 0.8462090301513672 10.168300170898437 76.5456 85.1383 -246.543 2.74337 -6.33909 1.36282 -3.22547 14.6391 1.16446 30.8195 38.4455 -18.711 25.2496 -44.1045 21.1467 -102.296 -6.66531 3.85046 -57.7417 5.75509 20.2475 0.0 30.283 0.0 18.9157 -10.9179 -0.0470819 0.0 0.0 0.0 0.0 0.0 0.0 99.36043 -8.3497 -6.42512 50.3906 30.9401 -22.422 0.0 138.381 0.0 -64.495 41.9447 13.8688 0.0 0.0 0.0 0.0 0.0 0.0 7.32711 -21.4354 1.31373 0.0 50.0083 0.0 12.4753 12.5498905 2.03395 0.0 -42.263702 0.0 6.24593 -4.88311 2.69574 0.0 9.80248 0.0 8.7298 11.78319 -6.79164 0.0 -28.5296 0.0 
  14.868399658203124 0.8971260070800782 10.16719970703125 74.163 84.9639 -243.811 2.9484 -6.46936 1.38385 -3.17809 14.5364 1.14777 29.4297 39.047 -17.2514 23.8793 -44.3697 20.1404 -102.3674 -6.49243 3.71114 -57.6462 5.42758 20.2491 0.0 29.827 0.0 18.7219 -10.8736 0.261951 0.0 0.0 0.0 0.0 0.0 0.0 99.64731 -8.37986 -6.44183 50.0785 31.7229 -22.3287 0.0 138.419 0.0 -63.2838 40.1663 14.0983 0.0 0.0 0.0 0.0 0.0 0.0 7.46431 -21.3113 1.74332 0.0 45.7165 0.0 12.5806 12.51323 2.19076 0.0 -41.8627 0.0 6.37279 -4.44595 2.71643 0.0 9.12207 0.0 8.71096 11.68422 -7.09125 0.0 -28.7934 0.0 
  14.868699951171875 0.9467910003662109 10.164400024414062 71.6372 84.7131 -240.889 3.18955 -6.67987 1.35224 -2.96278 14.4557 1.07607 27.4642 39.8484 -15.1148 22.6101 -44.8084 18.7186 -102.589096 -6.5449 3.71087 -57.5325 5.52395 20.2364 0.0 29.151 0.0 18.5427 -10.8108 0.346531 0.0 0.0 0.0 0.0 0.0 0.0 100.5345 -7.62879 -6.4809 48.1951 31.4287 -21.8422 0.0 141.165 0.0 -59.2954 31.2486 10.5759 0.0 0.0 0.0 0.0 0.0 0.0 7.63697 -21.0932 2.21902 0.0 41.0364 0.0 12.2525 12.78703 2.09008 0.0 -41.7566 0.0 6.51806 -4.04389 2.78512 0.0 8.38445 0.0 8.78884 11.50239 -7.44236 0.0 -28.5183 0.0 
  14.865899658203125 0.99685302734375 10.160700073242188 69.4796 84.3915 -238.245 3.46795 -6.89041 1.32075 -2.95155 14.3451 0.987963 26.2581 40.443 -13.7439 21.3103 -44.8733 17.8073 -102.6027 -6.63494 3.70883 -57.5716 5.57849 19.8828 0.0 28.5893 0.0 18.5543 -10.7418 0.27723 0.0 0.0 0.0 0.0 0.0 0.0 100.6731 -7.46668 -6.52603 48.1398 31.8408 -21.4279 0.0 141.137 0.0 -58.4526 30.3072 10.8862 0.0 0.0 0.0 0.0 0.0 0.0 7.85698 -20.788 2.74852 0.0 36.1125 0.0 11.7961 12.82813 1.50185 0.0 -41.795097 0.0 6.69245 -3.62251 2.6456 0.0 7.56331 0.0 8.91941 11.37635 -7.71296 0.0 -28.4775 0.0 
  14.86030029296875 1.0479199981689453 10.156300048828125 67.562 84.0594 -235.728 3.68837 -7.12748 1.24791 -2.86837 14.3002 0.871768 25.3193 41.0034 -12.7122 19.9841 -45.0377 17.0749 -102.634 -6.66532 3.76633 -57.6224 5.69279 19.4098 0.0 28.1116 0.0 18.6416 -10.9214 0.269401 0.0 0.0 0.0 0.0 0.0 0.0 100.7703 -7.33118 -6.57789 48.1503 32.1681 -21.0185 0.0 141.139 0.0 -57.8107 29.3588 11.1027 0.0 0.0 0.0 0.0 0.0 0.0 8.04143 -20.3887 3.54946 0.0 31.0655 0.0 12.1132 12.49102 0.690032 0.0 -41.606102 0.0 6.8463 -3.15854 2.36995 0.0 6.72307 0.0 9.05324 11.21961 -7.93224 0.0 -28.3918 0.0 
  14.8506005859375 1.0985199737548828 10.149299926757813 65.9762 83.673 -233.487 3.88838 -7.36322 1.16963 -2.67373 14.2195 0.755457 24.3755 41.5112 -11.7386 18.6936 -45.2001 16.2295 -102.6862 -6.59031 3.69341 -57.6895 5.58555 19.0138 0.0 27.8071 0.0 18.8123 -11.058 -0.218745 0.0 0.0 0.0 0.0 0.0 0.0 100.79 -7.20829 -6.67771 48.1223 32.407 -20.6106 0.0 141.199 0.0 -57.1229 28.0032 11.6651 0.0 0.0 0.0 0.0 0.0 0.0 8.19113 -20.052 4.64307 0.0 26.2289 0.0 12.6112 11.76786 -0.125545 0.0 -41.3583 0.0 7.02277 -2.74613 1.86528 0.0 5.95076 0.0 9.11668 11.02392 -8.00666 0.0 -28.2428 0.0 
  14.83760009765625 1.1492800140380859 10.140599975585937 64.8188 83.2713 -231.622 4.08527 -7.54585 1.0835 -2.4909 14.1253 0.629467 23.5491 41.8724 -10.9296 17.5359 -45.2636 15.4537 -102.7124 -6.8142 3.7329 -57.7378 5.88721 18.9437 0.0 27.503 0.0 18.808 -11.1849 -0.651747 0.0 0.0 0.0 0.0 0.0 0.0 100.9302 -7.18805 -6.78896 47.9129 32.732 -20.0781 0.0 141.338 0.0 -55.9997 26.3554 11.9115 0.0 0.0 0.0 0.0 0.0 0.0 8.25499 -19.753 5.856 0.0 21.6599 0.0 12.4763 11.18317 -0.75867 0.0 -41.326797 0.0 7.21607 -2.41529 1.34628 0.0 5.3802 0.0 9.14626 10.75713 -8.09397 0.0 -28.1651 0.0 
  14.820400390625 1.198939971923828 10.131699829101562 63.6081 82.8732 -229.698 4.25475 -7.70593 1.02233 -2.30682 13.9828 0.533099 22.8633 42.2185 -10.2969 16.4402 -45.2958 14.6717 -102.770004 -6.87681 3.7902 -57.7128 6.04383 18.9026 0.0 27.4367 0.0 18.7808 -11.3078 -0.900896 0.0 0.0 0.0 0.0 0.0 0.0 101.0753 -7.28136 -6.78768 47.7725 33.0217 -19.6428 0.0 141.4 0.0 -54.7052 25.1121 12.0589 0.0 0.0 0.0 0.0 0.0 0.0 8.1747 -19.4521 7.23574 0.0 17.241 0.0 11.928 11.2967205 -1.36663 0.0 -41.2844 0.0 7.36564 -2.28011 0.741215 0.0 5.12555 0.0 9.17689 10.41316 -8.07876 0.0 -28.171799 0.0 
